<svg width="311" height="56" viewBox="0 0 311 56" fill="none" xmlns="http://www.w3.org/2000/svg">
<path d="M7.95 1.5H10L17.825 19H15.675L8.925 3.55L2.225 19H0.125L7.95 1.5ZM3.575 12.725H14.2V14.45H3.575V12.725ZM30.4193 11.375C30.4193 10.175 30.086 9.24167 29.4193 8.575C28.7693 7.89167 27.861 7.55 26.6943 7.55C25.2943 7.56667 24.2027 8.04167 23.4193 8.975C22.636 9.89167 22.2443 11.0833 22.2443 12.55H21.5693C21.5693 11.0167 21.8027 9.75833 22.2693 8.775C22.736 7.775 23.4027 7.03333 24.2693 6.55C25.1527 6.05 26.186 5.8 27.3693 5.8C28.4193 5.8 29.3193 6.00833 30.0693 6.425C30.8193 6.84167 31.386 7.43333 31.7693 8.2C32.1693 8.95 32.3693 9.85833 32.3693 10.925V19H30.4193V11.375ZM20.3193 5.85H22.2693V19H20.3193V5.85ZM36.7256 5.85H38.6506V19H36.7256V5.85ZM37.6756 0.824999C38.0423 0.824999 38.3423 0.949999 38.5756 1.2C38.8256 1.43333 38.9506 1.73333 38.9506 2.1C38.9506 2.45 38.8256 2.75 38.5756 3C38.3423 3.25 38.0423 3.375 37.6756 3.375C37.3256 3.375 37.0256 3.25 36.7756 3C36.5256 2.75 36.4006 2.45 36.4006 2.1C36.4006 1.73333 36.5256 1.43333 36.7756 1.2C37.0256 0.949999 37.3256 0.824999 37.6756 0.824999ZM53.2906 11.375C53.2906 10.175 52.9656 9.23333 52.3156 8.55C51.6823 7.86667 50.7906 7.525 49.6406 7.525C48.2906 7.55833 47.2323 8.04167 46.4656 8.975C45.699 9.89167 45.3156 11.0833 45.3156 12.55H44.6656C44.6656 11.0167 44.8906 9.75833 45.3406 8.775C45.8073 7.775 46.4656 7.03333 47.3156 6.55C48.1656 6.05 49.174 5.8 50.3406 5.8C51.374 5.8 52.249 6.00833 52.9656 6.425C53.699 6.84167 54.2573 7.43333 54.6406 8.2C55.0406 8.95 55.2406 9.85833 55.2406 10.925V19H53.2906V11.375ZM63.2156 11.375C63.2156 10.175 62.8906 9.23333 62.2406 8.55C61.5906 7.86667 60.699 7.525 59.5656 7.525C58.2156 7.55833 57.1573 8.04167 56.3906 8.975C55.624 9.89167 55.2406 11.0833 55.2406 12.55H54.5656C54.5656 11.0167 54.7906 9.75833 55.2406 8.775C55.7073 7.775 56.3656 7.03333 57.2156 6.55C58.0656 6.05 59.0823 5.8 60.2656 5.8C61.2823 5.8 62.1573 6.00833 62.8906 6.425C63.624 6.84167 64.1823 7.43333 64.5656 8.2C64.9656 8.95 65.1656 9.85833 65.1656 10.925V19H63.2156V11.375ZM43.3906 5.85H45.3156V19H43.3906V5.85ZM79.0893 11.65C79.0559 10.7667 78.8476 10.0083 78.4643 9.375C78.0976 8.725 77.5893 8.225 76.9393 7.875C76.3059 7.525 75.5559 7.35 74.6893 7.35C73.7726 7.35 72.9643 7.55833 72.2643 7.975C71.5809 8.39167 71.0393 8.975 70.6393 9.725C70.2393 10.475 70.0393 11.35 70.0393 12.35C70.0393 13.3833 70.2393 14.2917 70.6393 15.075C71.0559 15.8417 71.6309 16.4417 72.3643 16.875C73.0976 17.3083 73.9309 17.525 74.8643 17.525C76.5309 17.525 77.8893 16.9583 78.9393 15.825L80.0143 16.9C79.3809 17.5833 78.6143 18.1167 77.7143 18.5C76.8143 18.8667 75.8226 19.05 74.7393 19.05C73.4393 19.05 72.2893 18.775 71.2893 18.225C70.3059 17.6583 69.5393 16.875 68.9893 15.875C68.4393 14.875 68.1643 13.725 68.1643 12.425C68.1643 11.125 68.4393 9.98333 68.9893 9C69.5393 8 70.3059 7.225 71.2893 6.675C72.2893 6.10833 73.4226 5.81667 74.6893 5.8C76.1059 5.8 77.2809 6.10833 78.2143 6.725C79.1476 7.325 79.8309 8.175 80.2643 9.275C80.7143 10.3583 80.8976 11.6333 80.8143 13.1H69.6893V11.65H79.0893ZM80.7652 1.5H82.9152L88.0152 17.725H87.4902L92.5652 1.5H94.5652L99.6652 17.725H99.1652L104.215 1.5H106.315L100.39 19H98.3152L93.2902 3.15H93.8152L88.7152 19H86.6652L80.7652 1.5ZM112.974 5.8C114.274 5.8 115.424 6.08333 116.424 6.65C117.441 7.2 118.232 7.975 118.799 8.975C119.366 9.975 119.649 11.125 119.649 12.425C119.649 13.725 119.366 14.875 118.799 15.875C118.232 16.875 117.441 17.6583 116.424 18.225C115.424 18.775 114.274 19.05 112.974 19.05C111.674 19.05 110.516 18.775 109.499 18.225C108.499 17.6583 107.716 16.875 107.149 15.875C106.582 14.875 106.299 13.725 106.299 12.425C106.299 11.125 106.582 9.975 107.149 8.975C107.716 7.975 108.499 7.2 109.499 6.65C110.516 6.08333 111.674 5.8 112.974 5.8ZM112.974 7.425C112.057 7.425 111.241 7.64167 110.524 8.075C109.807 8.49167 109.249 9.075 108.849 9.825C108.449 10.575 108.249 11.4417 108.249 12.425C108.249 13.425 108.449 14.3083 108.849 15.075C109.249 15.825 109.807 16.4167 110.524 16.85C111.241 17.2667 112.057 17.475 112.974 17.475C113.907 17.475 114.724 17.2667 115.424 16.85C116.141 16.4167 116.699 15.825 117.099 15.075C117.499 14.3083 117.699 13.425 117.699 12.425C117.699 11.4417 117.499 10.575 117.099 9.825C116.699 9.075 116.141 8.49167 115.424 8.075C114.724 7.64167 113.907 7.425 112.974 7.425ZM129.753 7.575C128.77 7.55833 127.92 7.76667 127.203 8.2C126.503 8.61667 125.961 9.20833 125.578 9.975C125.195 10.725 125.003 11.6083 125.003 12.625L124.328 12.55C124.328 11.1167 124.545 9.9 124.978 8.9C125.411 7.9 126.036 7.13333 126.853 6.6C127.67 6.06667 128.636 5.8 129.753 5.8V7.575ZM123.078 5.85H125.028V19H123.078V5.85ZM132.505 0.449999H134.455V19H132.505V0.449999ZM144.313 5.775C145.53 5.775 146.588 6.05 147.488 6.6C148.388 7.15 149.08 7.925 149.563 8.925C150.063 9.90833 150.305 11.075 150.288 12.425C150.305 13.775 150.063 14.95 149.563 15.95C149.08 16.95 148.388 17.725 147.488 18.275C146.605 18.825 145.555 19.1 144.338 19.1C143.088 19.1 141.98 18.8167 141.013 18.25C140.063 17.6667 139.322 16.875 138.788 15.875C138.255 14.875 137.988 13.725 137.988 12.425C137.988 11.1083 138.255 9.95833 138.788 8.975C139.322 7.975 140.063 7.19167 141.013 6.625C141.963 6.05833 143.063 5.775 144.313 5.775ZM144.688 7.375C143.772 7.375 142.955 7.6 142.238 8.05C141.522 8.48333 140.955 9.08333 140.538 9.85C140.138 10.6 139.938 11.4667 139.938 12.45C139.938 13.4333 140.138 14.3083 140.538 15.075C140.955 15.825 141.522 16.4167 142.238 16.85C142.955 17.2833 143.772 17.5 144.688 17.5C145.622 17.5 146.447 17.2833 147.163 16.85C147.88 16.4167 148.438 15.825 148.838 15.075C149.255 14.3083 149.463 13.4333 149.463 12.45C149.463 11.4667 149.255 10.6 148.838 9.85C148.438 9.08333 147.88 8.48333 147.163 8.05C146.447 7.6 145.622 7.375 144.688 7.375ZM149.463 0.449999H151.413V19H149.463V0.449999ZM156.382 9.325C156.715 9.325 156.999 9.44167 157.232 9.675C157.465 9.90833 157.582 10.2 157.582 10.55C157.582 10.9 157.465 11.1917 157.232 11.425C156.999 11.6583 156.715 11.775 156.382 11.775C156.032 11.775 155.74 11.6583 155.507 11.425C155.274 11.1917 155.157 10.9 155.157 10.55C155.157 10.2 155.274 9.90833 155.507 9.675C155.74 9.44167 156.032 9.325 156.382 9.325ZM156.382 16.75C156.715 16.75 156.999 16.8667 157.232 17.1C157.465 17.3333 157.582 17.625 157.582 17.975C157.582 18.325 157.465 18.6167 157.232 18.85C156.999 19.0833 156.715 19.2 156.382 19.2C156.032 19.2 155.74 19.0833 155.507 18.85C155.274 18.6167 155.157 18.325 155.157 17.975C155.157 17.625 155.274 17.3333 155.507 17.1C155.74 16.8667 156.032 16.75 156.382 16.75ZM174.966 1.5C176.15 1.5 177.158 1.675 177.991 2.025C178.841 2.375 179.491 2.875 179.941 3.525C180.391 4.175 180.616 4.95833 180.616 5.875C180.616 6.89167 180.333 7.75833 179.766 8.475C179.2 9.175 178.416 9.625 177.416 9.825C178.666 10.0083 179.641 10.4917 180.341 11.275C181.041 12.0583 181.391 13.05 181.391 14.25C181.391 15.25 181.141 16.1083 180.641 16.825C180.141 17.525 179.416 18.0667 178.466 18.45C177.533 18.8167 176.4 19 175.066 19H167.591V1.5H174.966ZM174.866 9.125C176.033 9.125 176.941 8.86667 177.591 8.35C178.258 7.83333 178.591 7.1 178.591 6.15C178.591 5.21667 178.258 4.5 177.591 4C176.941 3.48333 176.033 3.23333 174.866 3.25H169.591V9.125H174.866ZM174.866 17.275C176.283 17.275 177.383 16.9917 178.166 16.425C178.966 15.8583 179.366 15.0583 179.366 14.025C179.366 13.025 178.966 12.25 178.166 11.7C177.383 11.1333 176.283 10.85 174.866 10.85H169.591V17.275H174.866ZM194.812 11.65C194.779 10.7667 194.57 10.0083 194.187 9.375C193.82 8.725 193.312 8.225 192.662 7.875C192.029 7.525 191.279 7.35 190.412 7.35C189.495 7.35 188.687 7.55833 187.987 7.975C187.304 8.39167 186.762 8.975 186.362 9.725C185.962 10.475 185.762 11.35 185.762 12.35C185.762 13.3833 185.962 14.2917 186.362 15.075C186.779 15.8417 187.354 16.4417 188.087 16.875C188.82 17.3083 189.654 17.525 190.587 17.525C192.254 17.525 193.612 16.9583 194.662 15.825L195.737 16.9C195.104 17.5833 194.337 18.1167 193.437 18.5C192.537 18.8667 191.545 19.05 190.462 19.05C189.162 19.05 188.012 18.775 187.012 18.225C186.029 17.6583 185.262 16.875 184.712 15.875C184.162 14.875 183.887 13.725 183.887 12.425C183.887 11.125 184.162 9.98333 184.712 9C185.262 8 186.029 7.225 187.012 6.675C188.012 6.10833 189.145 5.81667 190.412 5.8C191.829 5.8 193.004 6.10833 193.937 6.725C194.87 7.325 195.554 8.175 195.987 9.275C196.437 10.3583 196.62 11.6333 196.537 13.1H185.412V11.65H194.812ZM208.388 15.05C208.388 15.8833 208.538 16.4833 208.838 16.85C209.138 17.2 209.572 17.375 210.138 17.375C210.472 17.3583 210.813 17.3 211.163 17.2C211.513 17.0833 211.872 16.9083 212.238 16.675L212.788 18.1C212.338 18.4 211.855 18.6417 211.338 18.825C210.838 18.9917 210.33 19.075 209.813 19.075C209.163 19.075 208.588 18.95 208.088 18.7C207.588 18.4333 207.188 18.025 206.888 17.475C206.605 16.925 206.463 16.2167 206.463 15.35V2.85H208.388V15.05ZM204.563 6.25H212.563V7.7H204.563V6.25ZM225.955 11.375C225.955 10.175 225.622 9.24167 224.955 8.575C224.305 7.89167 223.397 7.55 222.23 7.55C220.83 7.56667 219.738 8.04167 218.955 8.975C218.172 9.89167 217.78 11.0833 217.78 12.55H217.105C217.105 11.0167 217.338 9.75833 217.805 8.775C218.272 7.775 218.938 7.03333 219.805 6.55C220.688 6.05 221.722 5.8 222.905 5.8C223.955 5.8 224.855 6.00833 225.605 6.425C226.355 6.84167 226.922 7.43333 227.305 8.2C227.705 8.95 227.905 9.85833 227.905 10.925V19H225.955V11.375ZM215.83 0.449999H217.78V19H215.83V0.449999ZM241.858 11.65C241.824 10.7667 241.616 10.0083 241.233 9.375C240.866 8.725 240.358 8.225 239.708 7.875C239.074 7.525 238.324 7.35 237.458 7.35C236.541 7.35 235.733 7.55833 235.033 7.975C234.349 8.39167 233.808 8.975 233.408 9.725C233.008 10.475 232.808 11.35 232.808 12.35C232.808 13.3833 233.008 14.2917 233.408 15.075C233.824 15.8417 234.399 16.4417 235.133 16.875C235.866 17.3083 236.699 17.525 237.633 17.525C239.299 17.525 240.658 16.9583 241.708 15.825L242.783 16.9C242.149 17.5833 241.383 18.1167 240.483 18.5C239.583 18.8667 238.591 19.05 237.508 19.05C236.208 19.05 235.058 18.775 234.058 18.225C233.074 17.6583 232.308 16.875 231.758 15.875C231.208 14.875 230.933 13.725 230.933 12.425C230.933 11.125 231.208 9.98333 231.758 9C232.308 8 233.074 7.225 234.058 6.675C235.058 6.10833 236.191 5.81667 237.458 5.8C238.874 5.8 240.049 6.10833 240.983 6.725C241.916 7.325 242.599 8.175 243.033 9.275C243.483 10.3583 243.666 11.6333 243.583 13.1H232.458V11.65H241.858ZM263.284 11.375C263.284 10.175 262.951 9.24167 262.284 8.575C261.634 7.89167 260.726 7.55 259.559 7.55C258.159 7.56667 257.068 8.04167 256.284 8.975C255.501 9.89167 255.109 11.0833 255.109 12.55H254.434C254.434 11.0167 254.668 9.75833 255.134 8.775C255.601 7.775 256.268 7.03333 257.134 6.55C258.018 6.05 259.051 5.8 260.234 5.8C261.284 5.8 262.184 6.00833 262.934 6.425C263.684 6.84167 264.251 7.43333 264.634 8.2C265.034 8.95 265.234 9.85833 265.234 10.925V19H263.284V11.375ZM253.159 0.449999H255.109V19H253.159V0.449999ZM279.187 11.65C279.154 10.7667 278.945 10.0083 278.562 9.375C278.195 8.725 277.687 8.225 277.037 7.875C276.404 7.525 275.654 7.35 274.787 7.35C273.87 7.35 273.062 7.55833 272.362 7.975C271.679 8.39167 271.137 8.975 270.737 9.725C270.337 10.475 270.137 11.35 270.137 12.35C270.137 13.3833 270.337 14.2917 270.737 15.075C271.154 15.8417 271.729 16.4417 272.462 16.875C273.195 17.3083 274.029 17.525 274.962 17.525C276.629 17.525 277.987 16.9583 279.037 15.825L280.112 16.9C279.479 17.5833 278.712 18.1167 277.812 18.5C276.912 18.8667 275.92 19.05 274.837 19.05C273.537 19.05 272.387 18.775 271.387 18.225C270.404 17.6583 269.637 16.875 269.087 15.875C268.537 14.875 268.262 13.725 268.262 12.425C268.262 11.125 268.537 9.98333 269.087 9C269.637 8 270.404 7.225 271.387 6.675C272.387 6.10833 273.52 5.81667 274.787 5.8C276.204 5.8 277.379 6.10833 278.312 6.725C279.245 7.325 279.929 8.175 280.362 9.275C280.812 10.3583 280.995 11.6333 280.912 13.1H269.787V11.65H279.187ZM290.959 7.575C289.976 7.55833 289.126 7.76667 288.409 8.2C287.709 8.61667 287.168 9.20833 286.784 9.975C286.401 10.725 286.209 11.6083 286.209 12.625L285.534 12.55C285.534 11.1167 285.751 9.9 286.184 8.9C286.618 7.9 287.243 7.13333 288.059 6.6C288.876 6.06667 289.843 5.8 290.959 5.8V7.575ZM284.284 5.85H286.234V19H284.284V5.85ZM298.936 5.8C300.236 5.8 301.386 6.08333 302.386 6.65C303.403 7.2 304.194 7.975 304.761 8.975C305.328 9.975 305.611 11.125 305.611 12.425C305.611 13.725 305.328 14.875 304.761 15.875C304.194 16.875 303.403 17.6583 302.386 18.225C301.386 18.775 300.236 19.05 298.936 19.05C297.636 19.05 296.478 18.775 295.461 18.225C294.461 17.6583 293.678 16.875 293.111 15.875C292.544 14.875 292.261 13.725 292.261 12.425C292.261 11.125 292.544 9.975 293.111 8.975C293.678 7.975 294.461 7.2 295.461 6.65C296.478 6.08333 297.636 5.8 298.936 5.8ZM298.936 7.425C298.019 7.425 297.203 7.64167 296.486 8.075C295.769 8.49167 295.211 9.075 294.811 9.825C294.411 10.575 294.211 11.4417 294.211 12.425C294.211 13.425 294.411 14.3083 294.811 15.075C295.211 15.825 295.769 16.4167 296.486 16.85C297.203 17.2667 298.019 17.475 298.936 17.475C299.869 17.475 300.686 17.2667 301.386 16.85C302.103 16.4167 302.661 15.825 303.061 15.075C303.461 14.3083 303.661 13.425 303.661 12.425C303.661 11.4417 303.461 10.575 303.061 9.825C302.661 9.075 302.103 8.49167 301.386 8.075C300.686 7.64167 299.869 7.425 298.936 7.425ZM309.165 16.75C309.498 16.75 309.782 16.8667 310.015 17.1C310.248 17.3333 310.365 17.625 310.365 17.975C310.365 18.325 310.248 18.6167 310.015 18.85C309.782 19.0833 309.498 19.2 309.165 19.2C308.815 19.2 308.523 19.0833 308.29 18.85C308.057 18.6167 307.94 18.325 307.94 17.975C307.94 17.625 308.057 17.3333 308.29 17.1C308.523 16.8667 308.815 16.75 309.165 16.75ZM124.803 33.5C127.003 33.5 128.703 34.0167 129.903 35.05C131.103 36.0667 131.703 37.5 131.703 39.35C131.703 41.2667 131.103 42.7583 129.903 43.825C128.703 44.875 127.003 45.4 124.803 45.4H120.153V51H118.153V33.5H124.803ZM124.803 43.675C126.386 43.675 127.611 43.3167 128.478 42.6C129.361 41.8667 129.803 40.8 129.803 39.4C129.803 38.0333 129.361 37 128.478 36.3C127.611 35.6 126.386 35.25 124.803 35.25H120.153V43.675H124.803ZM125.403 44.575H127.428L131.878 51H129.603L125.403 44.575ZM137.444 45.5C137.444 46.6833 137.769 47.6167 138.419 48.3C139.069 48.9667 139.961 49.3 141.094 49.3C142.461 49.2667 143.519 48.7917 144.269 47.875C145.036 46.9583 145.419 45.7667 145.419 44.3H146.069C146.069 45.8333 145.836 47.1 145.369 48.1C144.919 49.0833 144.269 49.8167 143.419 50.3C142.586 50.7833 141.586 51.0333 140.419 51.05C139.403 51.05 138.528 50.85 137.794 50.45C137.061 50.0333 136.494 49.4417 136.094 48.675C135.694 47.9083 135.494 47 135.494 45.95V37.85H137.444V45.5ZM145.419 37.85H147.369V51H145.419V37.85ZM152.256 32.45H154.206V51H152.256V32.45ZM168.664 43.65C168.631 42.7667 168.423 42.0083 168.039 41.375C167.673 40.725 167.164 40.225 166.514 39.875C165.881 39.525 165.131 39.35 164.264 39.35C163.348 39.35 162.539 39.5583 161.839 39.975C161.156 40.3917 160.614 40.975 160.214 41.725C159.814 42.475 159.614 43.35 159.614 44.35C159.614 45.3833 159.814 46.2917 160.214 47.075C160.631 47.8417 161.206 48.4417 161.939 48.875C162.673 49.3083 163.506 49.525 164.439 49.525C166.106 49.525 167.464 48.9583 168.514 47.825L169.589 48.9C168.956 49.5833 168.189 50.1167 167.289 50.5C166.389 50.8667 165.398 51.05 164.314 51.05C163.014 51.05 161.864 50.775 160.864 50.225C159.881 49.6583 159.114 48.875 158.564 47.875C158.014 46.875 157.739 45.725 157.739 44.425C157.739 43.125 158.014 41.9833 158.564 41C159.114 40 159.881 39.225 160.864 38.675C161.864 38.1083 162.998 37.8167 164.264 37.8C165.681 37.8 166.856 38.1083 167.789 38.725C168.723 39.325 169.406 40.175 169.839 41.275C170.289 42.3583 170.473 43.6333 170.389 45.1H159.264V43.65H168.664ZM184.041 52.875C183.624 53.875 183.074 54.6333 182.391 55.15C181.724 55.6667 180.957 55.925 180.091 55.925C179.541 55.925 179.041 55.85 178.591 55.7C178.141 55.55 177.716 55.3167 177.316 55L178.141 53.55C178.724 53.95 179.341 54.15 179.991 54.15C180.491 54.15 180.949 53.9833 181.366 53.65C181.799 53.3333 182.141 52.85 182.391 52.2L182.941 50.925L177.491 37.85H179.516L183.916 48.925L188.091 37.85H190.091L184.041 52.875ZM197.325 37.8C198.625 37.8 199.775 38.0833 200.775 38.65C201.791 39.2 202.583 39.975 203.15 40.975C203.716 41.975 204 43.125 204 44.425C204 45.725 203.716 46.875 203.15 47.875C202.583 48.875 201.791 49.6583 200.775 50.225C199.775 50.775 198.625 51.05 197.325 51.05C196.025 51.05 194.866 50.775 193.85 50.225C192.85 49.6583 192.066 48.875 191.5 47.875C190.933 46.875 190.65 45.725 190.65 44.425C190.65 43.125 190.933 41.975 191.5 40.975C192.066 39.975 192.85 39.2 193.85 38.65C194.866 38.0833 196.025 37.8 197.325 37.8ZM197.325 39.425C196.408 39.425 195.591 39.6417 194.875 40.075C194.158 40.4917 193.6 41.075 193.2 41.825C192.8 42.575 192.6 43.4417 192.6 44.425C192.6 45.425 192.8 46.3083 193.2 47.075C193.6 47.825 194.158 48.4167 194.875 48.85C195.591 49.2667 196.408 49.475 197.325 49.475C198.258 49.475 199.075 49.2667 199.775 48.85C200.491 48.4167 201.05 47.825 201.45 47.075C201.85 46.3083 202.05 45.425 202.05 44.425C202.05 43.4417 201.85 42.575 201.45 41.825C201.05 41.075 200.491 40.4917 199.775 40.075C199.075 39.6417 198.258 39.425 197.325 39.425ZM208.929 45.5C208.929 46.6833 209.254 47.6167 209.904 48.3C210.554 48.9667 211.445 49.3 212.579 49.3C213.945 49.2667 215.004 48.7917 215.754 47.875C216.52 46.9583 216.904 45.7667 216.904 44.3H217.554C217.554 45.8333 217.32 47.1 216.854 48.1C216.404 49.0833 215.754 49.8167 214.904 50.3C214.07 50.7833 213.07 51.0333 211.904 51.05C210.887 51.05 210.012 50.85 209.279 50.45C208.545 50.0333 207.979 49.4417 207.579 48.675C207.179 47.9083 206.979 47 206.979 45.95V37.85H208.929V45.5ZM216.904 37.85H218.854V51H216.904V37.85ZM230.29 39.575C229.307 39.5583 228.457 39.7667 227.74 40.2C227.04 40.6167 226.499 41.2083 226.115 41.975C225.732 42.725 225.54 43.6083 225.54 44.625L224.865 44.55C224.865 43.1167 225.082 41.9 225.515 40.9C225.949 39.9 226.574 39.1333 227.39 38.6C228.207 38.0667 229.174 37.8 230.29 37.8V39.575ZM223.615 37.85H225.565V51H223.615V37.85ZM236.746 37.85H238.771L242.671 49.15L246.496 37.85H248.546L252.421 49.15L256.271 37.85H258.296L253.421 51H251.371L247.521 40.1L243.671 51H241.646L236.746 37.85ZM265.538 37.8C266.838 37.8 267.988 38.0833 268.988 38.65C270.004 39.2 270.796 39.975 271.363 40.975C271.929 41.975 272.213 43.125 272.213 44.425C272.213 45.725 271.929 46.875 271.363 47.875C270.796 48.875 270.004 49.6583 268.988 50.225C267.988 50.775 266.838 51.05 265.538 51.05C264.238 51.05 263.079 50.775 262.063 50.225C261.063 49.6583 260.279 48.875 259.713 47.875C259.146 46.875 258.863 45.725 258.863 44.425C258.863 43.125 259.146 41.975 259.713 40.975C260.279 39.975 261.063 39.2 262.063 38.65C263.079 38.0833 264.238 37.8 265.538 37.8ZM265.538 39.425C264.621 39.425 263.804 39.6417 263.088 40.075C262.371 40.4917 261.813 41.075 261.413 41.825C261.013 42.575 260.813 43.4417 260.813 44.425C260.813 45.425 261.013 46.3083 261.413 47.075C261.813 47.825 262.371 48.4167 263.088 48.85C263.804 49.2667 264.621 49.475 265.538 49.475C266.471 49.475 267.288 49.2667 267.988 48.85C268.704 48.4167 269.263 47.825 269.663 47.075C270.063 46.3083 270.263 45.425 270.263 44.425C270.263 43.4417 270.063 42.575 269.663 41.825C269.263 41.075 268.704 40.4917 267.988 40.075C267.288 39.6417 266.471 39.425 265.538 39.425ZM282.317 39.575C281.333 39.5583 280.483 39.7667 279.767 40.2C279.067 40.6167 278.525 41.2083 278.142 41.975C277.758 42.725 277.567 43.6083 277.567 44.625L276.892 44.55C276.892 43.1167 277.108 41.9 277.542 40.9C277.975 39.9 278.6 39.1333 279.417 38.6C280.233 38.0667 281.2 37.8 282.317 37.8V39.575ZM275.642 37.85H277.592V51H275.642V37.85ZM285.068 32.45H287.018V51H285.068V32.45ZM296.877 37.775C298.094 37.775 299.152 38.05 300.052 38.6C300.952 39.15 301.644 39.925 302.127 40.925C302.627 41.9083 302.869 43.075 302.852 44.425C302.869 45.775 302.627 46.95 302.127 47.95C301.644 48.95 300.952 49.725 300.052 50.275C299.169 50.825 298.119 51.1 296.902 51.1C295.652 51.1 294.544 50.8167 293.577 50.25C292.627 49.6667 291.885 48.875 291.352 47.875C290.819 46.875 290.552 45.725 290.552 44.425C290.552 43.1083 290.819 41.9583 291.352 40.975C291.885 39.975 292.627 39.1917 293.577 38.625C294.527 38.0583 295.627 37.775 296.877 37.775ZM297.252 39.375C296.335 39.375 295.519 39.6 294.802 40.05C294.085 40.4833 293.519 41.0833 293.102 41.85C292.702 42.6 292.502 43.4667 292.502 44.45C292.502 45.4333 292.702 46.3083 293.102 47.075C293.519 47.825 294.085 48.4167 294.802 48.85C295.519 49.2833 296.335 49.5 297.252 49.5C298.185 49.5 299.01 49.2833 299.727 48.85C300.444 48.4167 301.002 47.825 301.402 47.075C301.819 46.3083 302.027 45.4333 302.027 44.45C302.027 43.4667 301.819 42.6 301.402 41.85C301.002 41.0833 300.444 40.4833 299.727 40.05C299.01 39.6 298.185 39.375 297.252 39.375ZM302.027 32.45H303.977V51H302.027V32.45ZM308.945 48.75C309.279 48.75 309.562 48.8667 309.795 49.1C310.029 49.3333 310.145 49.625 310.145 49.975C310.145 50.325 310.029 50.6167 309.795 50.85C309.562 51.0833 309.279 51.2 308.945 51.2C308.595 51.2 308.304 51.0833 308.07 50.85C307.837 50.6167 307.72 50.325 307.72 49.975C307.72 49.625 307.837 49.3333 308.07 49.1C308.304 48.8667 308.595 48.75 308.945 48.75Z" fill="white"/>
</svg>
